<?xml version="1.0" encoding="utf-8"?>
<svg viewBox="0 0 500 500" xmlns="http://www.w3.org/2000/svg">
  <path fill="rgb(255,0,0)" stroke="rgb(255,0,0)" stroke-width="0" d="M 62.269 121.806 C 64.796 121.36 68.061 121.318 70.734 122.37 C 73.638 123.513 76.258 125.113 78.916 128.86 C 83.032 134.66 86.731 149.922 90.768 157.641 C 94.004 163.831 96.426 169.355 100.643 172.596 C 104.551 175.599 110.184 176.385 114.752 177.111 C 119.008 177.787 123.127 177.969 127.167 177.111 C 131.315 176.229 136.751 173.566 139.3 171.749 C 140.998 170.54 141.714 168.84 142.404 168.081 C 142.8 167.646 142.828 167.692 143.251 167.235 C 144.056 166.364 145.88 165.388 147.201 162.72 C 149.631 157.813 151.868 141.894 154.537 136.196 C 156.234 132.575 157.28 130.78 159.898 129.142 C 162.926 127.248 168.614 125.702 172.314 126.321 C 175.809 126.905 179.597 129.978 181.625 132.246 C 183.298 134.116 183.956 136.136 184.447 138.454 C 184.982 140.98 185.053 142.999 184.447 146.919 C 183.451 153.36 180.671 167.01 176.546 175.135 C 172.682 182.749 167.317 189.311 161.027 194.605 C 154.651 199.972 146.931 204.797 138.454 207.02 C 129.386 209.399 116.671 208.489 107.98 207.585 C 100.761 206.833 95.099 206.05 89.357 203.07 C 83.288 199.921 77.954 195.506 72.709 188.679 C 66.005 179.955 57.748 162.512 54.086 152.562 C 51.381 145.215 49.361 138.845 50.135 133.939 C 50.758 129.994 53.793 126.655 56.061 124.628 C 57.931 122.955 59.953 122.214 62.269 121.806 Z M 90.485 76.095 C 93.061 75.705 96.769 75.614 99.515 76.659 C 102.332 77.732 105.473 79.744 107.133 82.585 C 109.013 85.801 109.391 91.238 109.391 95.564 C 109.391 99.891 108.64 105.165 107.133 108.544 C 105.873 111.369 104.317 113.572 101.772 115.034 C 98.833 116.722 93.555 118.012 89.921 117.291 C 86.317 116.577 82.029 113.129 80.045 110.801 C 78.524 109.017 78.238 107.759 77.788 105.158 C 77.119 101.293 76.414 93.41 77.788 88.792 C 79.025 84.633 82.395 80.417 84.842 78.352 C 86.67 76.81 88.288 76.427 90.485 76.095 Z M 136.196 78.916 C 138.66 78.546 142.039 78.471 144.661 79.481 C 147.422 80.545 150.633 83.274 152.28 85.406 C 153.649 87.179 154.115 88.706 154.537 91.05 C 155.079 94.052 155.027 98.717 154.537 102.336 C 154.061 105.858 153.186 109.641 151.716 112.494 C 150.371 115.102 148.9 117.522 146.354 118.984 C 143.415 120.672 138.137 121.962 134.503 121.242 C 130.9 120.527 126.676 118.013 124.628 114.752 C 122.383 111.179 122.29 104.589 122.37 100.079 C 122.443 96.006 123.168 92.018 124.628 88.792 C 125.988 85.786 128.421 82.821 130.553 81.174 C 132.325 79.805 134.041 79.241 136.196 78.916 Z" style="fill: rgb(166, 209, 48); stroke: rgb(129, 151, 57); stroke-width: 2px;"/>
</svg>